<svg xmlns="http://www.w3.org/2000/svg" version="1.1" xmlns:xlink="http://www.w3.org/1999/xlink" xmlns:svgjs="http://svgjs.dev/svgjs" viewBox="0 0 10.88017807534904 7.345519957410848"><g transform="matrix(1,0,0,1,2.2426474267342096,4.254859421062973)"><g><path d=" M -1.4604863500484668 1.4013405021895853 Q -1.4697418276286944 1.2639879884493483 -1.4098891643782783 1.1924039818149594 Q -1.3500365011278619 1.12081997518057 -1.2241300301993117 1.112335787398695 Q -1.1568845286806542 1.1078044598333752 -1.103875255533533 1.1372892344367855 Q -1.0508659823864117 1.1667740090401955 -1.0186277479171946 1.229277980972448 Q -0.9863895134479773 1.2917819529046999 -0.980026372611571 1.3862118061011126 L -1.0447960083264831 1.384827289811001 Q -1.0477847562950982 1.3404738739157165 -1.0394797847994428 1.282424164446535 Q -1.0311748133037875 1.2243744549773539 -1.0040289941771567 1.1686482879645022 Q -0.9768831750505258 1.1129221209516504 -0.9241611690267391 1.0741567826862903 Q -0.8714391630029521 1.0353914444209305 -0.7855938419153041 1.0296067709332883 Q -0.6911639887188915 1.0232436300968821 -0.6289994226244662 1.0499555987119396 Q -0.5668348565300408 1.0766675673269972 -0.5305530905786512 1.1245265464578624 Q -0.4942713246272616 1.1723855255887274 -0.4782534551480834 1.2287962442364102 Q -0.4622355856689051 1.2852069628840928 -0.4586683703515258 1.3381449108881425 L -0.4346619753778108 1.6944029934018812 Q -0.4321552835331659 1.731602632539862 -0.45550630574983425 1.7583280476243217 Q -0.4788573279665026 1.7850534627087813 -0.5160569671044833 1.787560154553426 L -1.343033560248825 1.843285842484379 Q -1.3802331993868058 1.845792534329024 -1.4069586144712654 1.8224415121123556 Q -1.433684029555725 1.7990904898956872 -1.43619072140037 1.7618908507577065 L -1.4604863500484668 1.4013405021895853 M -1.2899218165298 1.4157175739901833 L -1.2727606185164615 1.6703920265502055 L -1.296906050062157 1.6533347865779198 L -1.0379393314477525 1.6358843548901991 L -1.0496591949133711 1.653921120130875 L -1.0670132153762975 1.3963851568679313 Q -1.0698091408953245 1.354893251675568 -1.0992109507433427 1.3238176918630564 Q -1.1286127605913605 1.2927421320505448 -1.1801199532439495 1.29621293614313 Q -1.2416424333567637 1.3003586188092737 -1.2674693213771775 1.3329998777491645 Q -1.2932962093975915 1.3656411366890553 -1.2899218165298 1.4157175739901833 M -0.8986661400278936 1.377854855584931 L -0.881119297115379 1.6382523295507965 L -0.8934330409502117 1.6261468211860015 L -0.5915436617919831 1.60580405275446 L -0.6048871030586508 1.6210757185170084 L -0.6232052357695177 1.3492322017394565 Q -0.6276401521100433 1.2834174555722597 -0.6652967612902718 1.247149136090272 Q -0.7029533704705004 1.2108808166082845 -0.7730603826920794 1.215604966623192 Q -0.8374443735078154 1.2199434717389237 -0.8643240784907388 1.2476252925610989 Q -0.8912037834736621 1.275307113383274 -0.8959472796111152 1.3115580532937643 Q -0.9006907757485683 1.347808993204254 -0.8986661400278936 1.377854855584931 M -1.1557044658751776 0.3127254955332155 L -0.49940031852564715 0.7553061847773419 Q -0.4745594360147652 0.7703406956134337 -0.46372983980285076 0.7936169054399258 Q -0.45290024359093634 0.816893115266418 -0.457534589886699 0.8408265587798565 Q -0.46489502223879264 0.8788384984776705 -0.4895566783885863 0.8930514144328623 Q -0.51421833453838 0.9072643303880541 -0.5451910261440063 0.9012669410641259 Q -0.5578616727099442 0.8988134636134281 -0.5711223430774205 0.8918638287017844 L -1.3451368721004389 0.37828932754223965 Q -1.3711129956241253 0.3615743584820772 -1.3821012994339923 0.33534614511589345 Q -1.3930896032438593 0.3091179317497097 -1.3850943404999554 0.2829140062106623 Q -1.3801873855985596 0.25757271307878626 -1.3611795312176522 0.23861343435215165 Q -1.3421716768367449 0.21965415562551693 -1.3135142738469994 0.21497877180348302 L -0.42145268045684825 0.028396408568839182 Q -0.40178759238899453 0.024901072349881703 -0.38630124658618137 0.02789976701184571 Q -0.34828930688836734 0.035260199363939426 -0.3305343635919456 0.0642593053767262 Q -0.31277942029552386 0.09325841138951307 -0.31850420101381893 0.12282325337670175 Q -0.32341115591521474 0.1481645465085778 -0.3428503264997078 0.16557967131395823 Q -0.36228949708420083 0.1829947961193389 -0.3912195086795792 0.18907802955981046 L -1.155163017727912 0.35518878610170335 L -1.1557044658751776 0.3127254955332155 M -0.6627071052004032 0.6784045967185397 L -0.8096163380109019 0.5696228780566677 L -0.7360120144899654 0.189503481078527 L -0.5689297448626174 0.19410432797601962 L -0.6627071052004032 0.6784045967185397 M -0.17013392274183312 -0.6617055800783843 Q -0.15453711988726196 -0.6955705530846579 -0.12254803894270391 -0.7084663138734796 Q -0.09055895799814578 -0.7213620746623013 -0.05669398499187217 -0.7057652718077301 Q -0.02413151094737831 -0.690768345986027 -0.013138126153204532 -0.6580766431125574 Q -0.0021447413590306996 -0.6253849402390876 -0.017741544213601856 -0.5915199672328141 L -0.21270157989574145 -0.16820780465439386 Q -0.22829838275031264 -0.13434283164812025 -0.26158996265665047 -0.12204694789216666 Q -0.2948815425629883 -0.1097510641362131 -0.32874651556926193 -0.12534786699078426 L -1.08159091547796 -0.4720767919885587 Q -1.1154558884842336 -0.48767359484312983 -1.127451833723753 -0.5216164242303576 Q -1.1394477789632727 -0.5555592536175853 -1.1226512220429652 -0.5920292245474184 Q -1.1082541732541302 -0.6232891996301325 -1.0743627163149243 -0.6368875823478658 Q -1.0404712593757184 -0.6504859650655992 -1.0066062863694447 -0.634889162211028 L -0.3045593459701571 -0.31155544149511033 L -0.3398991230435116 -0.29309837389471377 L -0.17013392274183312 -0.6617055800783843 M -0.3916918429746923 -1.8028032670906322 Q -0.3262236406734688 -1.8826410024758875 -0.24536477700304637 -1.920186443023683 Q -0.1645059133326241 -1.9577318835714785 -0.07571902507176298 -1.956322786359298 Q 0.013067863189098139 -1.9549136891471173 0.10121128182573114 -1.9187970918399617 Q 0.18935470046236413 -1.882680494532806 0.26919243584761965 -1.8172122922315825 Q 0.3767516071305333 -1.729012075242434 0.43308095272199154 -1.6179142582781119 Q 0.48941029831344973 -1.5068164413137897 0.481059438731167 -1.3903412342127202 Q 0.4727085791488843 -1.2738660271116506 0.38450836215973605 -1.1663068558287373 L 0.16719030174317476 -0.9012899286471252 Q 0.14354900646773294 -0.8724596353135607 0.10823159105782487 -0.8689670404667473 Q 0.07291417564791677 -0.865474445619934 0.044083882314352285 -0.8891157408953758 L -0.5968357156395043 -1.4146799204801976 Q -0.6256660089730688 -1.4383212157556393 -0.629158603819882 -1.4736386311655476 Q -0.6326511986666954 -1.5089560465754557 -0.6090099033912536 -1.5377863399090201 L -0.3916918429746923 -1.8028032670906322 M 0.24789695115533855 -1.259785549034128 Q 0.30518162816890915 -1.3296435674962266 0.3055149850026332 -1.403549484026782 Q 0.30584834183635734 -1.4774554005573373 0.2633461598844333 -1.5466157745537634 Q 0.2208439779325092 -1.6157761485501894 0.15098595947041066 -1.67306082556376 Q 0.09886965998281333 -1.7157970131770588 0.042195772787866015 -1.7427984350695145 Q -0.0144781144070813 -1.7697998569619702 -0.07052015399941075 -1.7749566124663334 Q -0.12656219359174015 -1.7801133679706964 -0.17854602484953808 -1.759688546312704 Q -0.23052985610733606 -1.739263724654712 -0.27326604372063473 -1.6871474251671148 L -0.4323901465361084 -1.4930973738835076 L -0.4332770575840954 -1.5123694735302238 L 0.11006308601000436 -1.0668219856468972 L 0.09240997068993281 -1.0701709274941462 L 0.24789695115533855 -1.259785549034128 M 0.8215264776790182 -2.8526556455026197 Q 0.8522828709172849 -2.8737302968869987 0.8853947436495502 -2.8659978945977826 Q 0.9185066163818155 -2.858265492308567 0.9395812677661943 -2.8275090990703005 L 1.2330052601179298 -2.3992854701375093 Q 1.300282031844985 -2.30110159941535 1.3101637906388994 -2.19661854974633 Q 1.3200455494328138 -2.09213550007731 1.2758836674737792 -1.9992947869077298 Q 1.2317217855147442 -1.9064540737381495 1.134720852994057 -1.839987865525878 Q 1.0377199204733694 -1.7735216573136063 0.9346059963491652 -1.7654472128926035 Q 0.831492072224961 -1.7573727684716007 0.737621701126549 -1.804305808590971 Q 0.643751330028137 -1.851238848710341 0.5764745583010816 -1.9494227194325005 L 0.28305056594934624 -2.3776463483652917 Q 0.26197591456496744 -2.4084027416035583 0.2690839406827432 -2.4436943033954233 Q 0.27619196680051916 -2.478985865187288 0.3093142364417295 -2.501681643601234 Q 0.3365218150755809 -2.520324604441262 0.3725910333115256 -2.5146186109390056 Q 0.40866025154747043 -2.5089126174367493 0.42973490293184924 -2.4781562241984827 L 0.7231588952835847 -2.0499325952656915 Q 0.7636870710227746 -1.9907856851921018 0.8187058106440269 -1.9650355564062327 Q 0.8737245502652793 -1.939285427620364 0.9319301267132042 -1.9444016683657526 Q 0.990135703161129 -1.9495179091111416 1.0374532312200009 -1.9819404497024937 Q 1.0883195738832883 -2.016794680838197 1.1158770170420689 -2.0704442949146333 Q 1.1434344602008495 -2.12409390899107 1.141056470545092 -2.1859141141848184 Q 1.1386784808893347 -2.247734319378566 1.0981503051501447 -2.306881229452156 L 0.8047263127984093 -2.735104858384947 Q 0.7836516614140305 -2.765861251623214 0.7872108729273909 -2.7987211228707274 Q 0.7907700844407515 -2.831580994118241 0.8215264776790182 -2.8526556455026197 M 1.7701710575570977 -2.2076881970239657 Q 1.7320951914695806 -2.1949441189605885 1.6942133907540633 -2.208728331072633 Q 1.6563315900385462 -2.222512543184678 1.64449780326541 -2.2578687045516586 L 1.3814236203856949 -3.043863368786836 Q 1.369589833612559 -3.0792195301538166 1.3854222011276465 -3.1109819952481255 Q 1.401254568642734 -3.142744460342435 1.4366107300097142 -3.1545782471155706 L 1.8282482097670347 -3.2856601929103078 Q 1.8989605325009955 -3.3093277664565797 1.973350320134028 -3.2926409534021843 Q 2.0477401077670603 -3.2759541403477894 2.1078905376429273 -3.2227453789381455 Q 2.1680409675187944 -3.169536617528502 2.196715143161393 -3.083865918831588 Q 2.2140106776759767 -3.032191529141386 2.2093182093161574 -2.9761820866723516 Q 2.204625740956338 -2.920172644203317 2.1817888771177216 -2.868675566159835 Q 2.1589520132791047 -2.817178488116353 2.121359215712175 -2.780401044063077 L 2.112250718234669 -2.8121327939943725 Q 2.1571537689989957 -2.8044790866537226 2.191641523388935 -2.7850223077029503 Q 2.2261292777788744 -2.7655655287521776 2.251103650222028 -2.738388027559635 Q 2.2760780226651813 -2.7112105263670925 2.291086659803975 -2.675404803930085 Q 2.307904710373064 -2.6432290775038556 2.3185922561707586 -2.6180746011264358 Q 2.329279801968453 -2.5929201247490155 2.341316030976229 -2.577290199468568 Q 2.353352259984005 -2.561660274188121 2.3742163601833397 -2.5580582010528095 Q 2.410050005495814 -2.5503933245619725 2.4286802617827457 -2.5195802427835585 Q 2.4473105180696773 -2.4887671610051445 2.432840795202405 -2.4551924901929927 Q 2.4237993126260196 -2.432507807413176 2.4022748322593777 -2.4200108481851856 Q 2.3807503518927358 -2.4075138889571956 2.3560398520102495 -2.404535896251085 Q 2.3313293521277636 -2.4015579035449743 2.3136401022940865 -2.4047104156102583 Q 2.2859711557183164 -2.4105714632458923 2.2539783255139003 -2.4293511083040773 Q 2.221985495309484 -2.4481307533622623 2.192687239237685 -2.4882268519773554 Q 2.163388983165886 -2.5283229505924485 2.1397214096196135 -2.5990352733264093 Q 2.1319839336525632 -2.6221527634509734 2.1172252076367037 -2.6391397488041424 Q 2.102466481620844 -2.6561267341573114 2.0827290763841244 -2.665398581843804 Q 2.0629916711474046 -2.6746704295302957 2.0373708799746773 -2.674412141544722 Q 2.0117500888019495 -2.6741538535591483 1.9804734845157748 -2.663685503721374 L 1.705783307741543 -2.57174608340701 L 1.715712743307796 -2.609849872369994 L 1.8144793482989694 -2.314761910191735 Q 1.8263131350721054 -2.2794057488247548 1.8152402508179575 -2.249236293488368 Q 1.8041673665638096 -2.219066838151981 1.7701710575570977 -2.2076881970239657 M 1.6602631586543881 -2.7122660221597834 L 1.9771087585969425 -2.8183149574728867 Q 2.001586101081775 -2.8265075790850576 2.017193688061849 -2.8566826189965377 Q 2.032801275041923 -2.886857658908018 2.0347880001189385 -2.9306200532719964 Q 2.0367747251959543 -2.974382447635975 2.0212997732618536 -3.020617427885103 Q 2.001273364876546 -3.0804509317369155 1.955890037879179 -3.109870653704501 Q 1.910506710881812 -3.1392903756720867 1.873790697154563 -3.12700144325383 L 1.5596648019325456 -3.021862799230968 L 1.5614183696119075 -3.0708398225010067 L 1.6902245871810415 -2.6860016045450283 L 1.6602631586543881 -2.7122660221597834 M 2.470306180020897 -3.3639042249617312 Q 2.467676395177422 -3.433058670629938 2.5343979194321484 -3.442583827065709 L 2.5784057333022874 -3.4488663770552597 Q 2.6181547264753164 -3.4545409383361445 2.6369116773594956 -3.434766323332851 Q 2.6556686282436752 -3.414991708329558 2.6481614016274517 -3.3762579628286042 L 2.5939846791966996 -3.065779043533491 Q 2.5836372722035867 -3.016500061030614 2.5396294583334478 -3.010217511041063 Q 2.494202037564272 -3.0037322981486234 2.490151679242944 -3.062544169717796 L 2.470306180020897 -3.3639042249617312 M 3.280723060462695 -2.4711604433669376 Q 3.180366792723371 -2.4733430852141467 3.1006274389937145 -2.5001782656267446 Q 3.020888085264058 -2.527013446039343 2.949143322215082 -2.591684739107027 Q 2.930848716210912 -2.6078603575234025 2.9212496178064216 -2.628149875255988 Q 2.9116505194019306 -2.648439392988574 2.9120870477713727 -2.6685106465364385 Q 2.91280420152117 -2.701484848793645 2.9370052679500986 -2.726059435864491 Q 2.961206334379027 -2.750634022935337 2.9970478585716425 -2.749854507989905 Q 3.0242874169580305 -2.7492620766313767 3.0454181642997926 -2.731590436051662 Q 3.0989306825402325 -2.6859620833357627 3.15219407926408 -2.661854235434341 Q 3.205457475987927 -2.637746387532919 3.284308829211681 -2.636031454652969 Q 3.3373542850167524 -2.6348777725337302 3.3821563518904942 -2.650398275129998 Q 3.426958418764236 -2.6659187777262656 3.4548059988080606 -2.6932827352379776 Q 3.4826535788518855 -2.7206466927496895 3.4834330937973172 -2.756488216942305 Q 3.4843685117318355 -2.799498045973444 3.4592174068673147 -2.830166177055952 Q 3.4340663020027944 -2.8608343081384597 3.3814729648660737 -2.882776074289416 Q 3.328879627729353 -2.904717840440372 3.2474103973527275 -2.917964422257594 Q 3.170242149879216 -2.9311174622813634 3.1119765300673117 -2.9560512727589976 Q 3.053710910255407 -2.9809850832366322 3.0150803388878704 -3.018400904353075 Q 2.9764497675203336 -3.055816725469518 2.957454244597165 -3.1057145572247693 Q 2.938458721673996 -3.1556123889800203 2.9397994873801387 -3.2172598105913193 Q 2.9418262262382613 -3.31044777349212 2.991288176155961 -3.3753516279796543 Q 3.04075012607366 -3.440255482467188 3.1232171355804383 -3.4728860516165145 Q 3.205684145087216 -3.505516620765841 3.3046067518588353 -3.5033651595164494 Q 3.3977947147596357 -3.5013384206583265 3.4767548768098058 -3.4716515086092277 Q 3.5557150388599754 -3.441964596560129 3.604957754795119 -3.3978634466053856 Q 3.645816769108756 -3.3639850070114785 3.644881351174238 -3.3209751779803396 Q 3.644195378022258 -3.289434636690838 3.6192618908105683 -3.2641588094350484 Q 3.5943284035988787 -3.238882982179259 3.5613542013416724 -3.2396001359290563 Q 3.539849286826103 -3.2400678448963154 3.522925980594003 -3.2533449607794642 Q 3.500423933480171 -3.2739151038924055 3.4621048448248617 -3.2926777421297793 Q 3.4237857561695533 -3.3114403803671535 3.381040962219861 -3.324561916527161 Q 3.338296168270169 -3.3376834526871684 3.301020983109849 -3.3384941482304176 Q 3.2393735614985504 -3.33983491393656 3.196737576375274 -3.3249844709274186 Q 3.1541015912519974 -3.3101340279182776 3.1320042453779 -3.2833621784991487 Q 3.1099068995038026 -3.25659032908002 3.1091273845583705 -3.2207488048874042 Q 3.1081919666238527 -3.1777389758562657 3.1326730119012467 -3.1492369265242233 Q 3.1571540571786407 -3.120734877192181 3.2041062922379946 -3.1032188163356076 Q 3.2510585272973485 -3.0857027554790344 3.3167263064314056 -3.0713654992700983 Q 3.4024029779176934 -3.0537243927563114 3.4671668429809945 -3.030800761040056 Q 3.5319307080442957 -3.0078771293238007 3.5742077930267286 -2.973250678648224 Q 3.616484878009161 -2.938624227972647 3.636882881302218 -2.887261554651874 Q 3.6572808845952736 -2.835898881331101 3.6556906741065927 -2.7627821719781647 Q 3.65366393524847 -2.6695942090773643 3.600586652313692 -2.603334645116669 Q 3.547509369378914 -2.5370750811559732 3.4628606878227615 -2.5030576219356684 Q 3.378212006266609 -2.469040162715363 3.280723060462695 -2.4711604433669376 M 4.538536092631544 -2.217216836754981 Q 4.445150089904943 -2.2540298629107767 4.379644544262611 -2.306826784517063 Q 4.31413899862028 -2.3596237061233496 4.26924024164597 -2.4451443983221495 Q 4.257682030964083 -2.466656046465263 4.255706035922582 -2.489014549626163 Q 4.253730040881081 -2.5113730527870626 4.26109264611224 -2.5300502533323828 Q 4.273188354706288 -2.5607342256568373 4.304404026173649 -2.575403370173193 Q 4.335619697641011 -2.5900725146895485 4.36897184147194 -2.576925005348193 Q 4.394319470783446 -2.566932898248763 4.408019952598153 -2.543035363605104 Q 4.442412299637883 -2.4816944910558916 4.48402610940581 -2.440627854992064 Q 4.525639919173735 -2.3995612189282363 4.59901463560178 -2.370636698377254 Q 4.648375808471554 -2.351178384552048 4.69578032111893 -2.3502174591309943 Q 4.743184833766305 -2.349256533709941 4.778787520364068 -2.3652790987986356 Q 4.814390206961831 -2.3813016638873297 4.827537716303187 -2.414653807718259 Q 4.843314727512814 -2.4546763803153735 4.830345091801283 -2.4921583878591296 Q 4.817375456089753 -2.529640395402886 4.775639838637964 -2.568442952650031 Q 4.733904221186176 -2.607245509897176 4.662068536240891 -2.6478945172213635 Q 4.594235108555319 -2.686965823424589 4.54821494883789 -2.7305401536728247 Q 4.502194789120461 -2.7741144839210605 4.478917890434622 -2.8225959309040993 Q 4.4556409917487825 -2.8710773778871377 4.455107354094533 -2.9244659416049785 Q 4.454573716440283 -2.97785450532282 4.477187432507415 -3.0352201927120177 Q 4.511370956794939 -3.1219357666724328 4.580254246716478 -3.1656860488039253 Q 4.649137536638017 -3.2094363309354184 4.737802033540236 -3.2114780677148196 Q 4.826466530442455 -3.213519804494221 4.918518447415819 -3.17723267871208 Q 5.005234021376234 -3.1430491544245553 5.069020723394639 -3.087847011498622 Q 5.132807425413044 -3.032644868572688 5.163723415566718 -2.9742157828976756 Q 5.190316193816549 -2.9282806997372486 5.174539182606922 -2.888258127140134 Q 5.162969374386529 -2.858908240568917 5.130823709855721 -2.8438350033627695 Q 5.098678045324914 -2.8287617661566227 5.06799407300046 -2.8408574747506696 Q 5.047982786701902 -2.8487459803554827 5.0367068610259444 -2.8670635566184677 Q 5.022724094205309 -2.8941551631422557 4.993277533538583 -2.925030545146384 Q 4.9638309728718575 -2.9559059271505124 4.928278553450804 -2.983022667262655 Q 4.89272613402975 -3.010139407374797 4.858039904445584 -3.023812817089807 Q 4.800674217056386 -3.0464265331569385 4.755533783225694 -3.047265650894129 Q 4.710393349395001 -3.04810476863132 4.680389955997013 -3.030645644924627 Q 4.650386562599026 -3.0131865212179343 4.63723905325767 -2.9798343773870055 Q 4.621462042048044 -2.939811804789891 4.634553485443437 -2.904593876062817 Q 4.6476449288388295 -2.869375947335744 4.685621904398633 -2.8366792488429273 Q 4.723598879958435 -2.803982550350111 4.780233721244456 -2.7677843613828825 Q 4.8544939623284895 -2.7215553956780205 4.907306358495966 -2.6776156423781963 Q 4.960118754663444 -2.633675889078372 4.987782668479685 -2.586547862667672 Q 5.015446582295925 -2.539419836256972 5.016788405329757 -2.48417128641224 Q 5.0181302283635905 -2.4289227365675075 4.991309309307225 -2.3608843631524126 Q 4.957125785019701 -2.2741687891919975 4.884381380341415 -2.2303991722414027 Q 4.811636975663129 -2.1866295552908084 4.7204454497574 -2.1840425833186514 Q 4.629253923851671 -2.181455611346494 4.538536092631544 -2.217216836754981 M 6.175892859136887 -2.371816875851281 Q 6.1953934058628635 -2.3349746514696292 6.177303339296802 -2.298552490569492 Q 6.159213272730742 -2.262130329669355 6.117870922181557 -2.2511318347237594 Q 6.087697485742961 -2.240965850192688 6.062110473132751 -2.255720978748042 Q 6.0365234605225435 -2.270476107303396 6.020356219689736 -2.299649878397549 Q 6.001522116526722 -2.3324912652447107 5.97560297021339 -2.3615825469522616 Q 5.949683823900058 -2.3906738286598124 5.9158460359435265 -2.4148481849533896 Q 5.8528377411279155 -2.4598625035690156 5.789076705088489 -2.4754544948523254 Q 5.725315669049061 -2.491046486135635 5.664052708292385 -2.4792996022796547 Q 5.602789747535708 -2.467552718423674 5.548859298089154 -2.4303002232657285 Q 5.4949288486426004 -2.393047728107783 5.451581727012739 -2.3323730738408988 Q 5.4007322189469384 -2.261197037104746 5.383639641568606 -2.1941021511329697 Q 5.366547064190272 -2.1270072651611933 5.3777105379090715 -2.0661611036509573 Q 5.388874011627871 -2.0053149421407217 5.425793285004334 -1.9533849114614135 Q 5.462712558380799 -1.9014548807821052 5.519886751824593 -1.860608554630889 Q 5.551390899232399 -1.838101395323076 5.587063039104614 -1.8214283373870788 Q 5.622735178976829 -1.8047552794510815 5.662742466243373 -1.7990839806957535 Q 5.69558167693382 -1.7932466150888637 5.7170006970796186 -1.7726573851616942 Q 5.738419717225417 -1.7520681552345243 5.739750428194626 -1.71939501139564 Q 5.74224687135984 -1.6735525346789217 5.713738999789471 -1.6472165891191488 Q 5.685231128219102 -1.6208806435593759 5.646057439445439 -1.6277187625890672 Q 5.6048833319045315 -1.634223659837277 5.565710187170048 -1.6472296460594442 Q 5.526537042435564 -1.6602356322816114 5.490114881535427 -1.6783256988476722 Q 5.453692720635289 -1.6964157654137328 5.419854932678758 -1.7205901217073098 Q 5.3358438729246105 -1.7806092131948112 5.279756730564472 -1.8612131822960507 Q 5.223669588204333 -1.94181715139729 5.202257096528682 -2.0364207876341713 Q 5.180844604853031 -2.1310244238710525 5.203274715166032 -2.233959148684143 Q 5.225704825479033 -2.336893873497233 5.299895091345528 -2.4407408779155544 Q 5.364082175297439 -2.5305860390415176 5.44918681460539 -2.584338996813751 Q 5.534291453913342 -2.6380919545859842 5.630478165631848 -2.653086390713459 Q 5.726664877350355 -2.6680808268409337 5.825765375519695 -2.643984063581348 Q 5.924865873689036 -2.619887300321762 6.015877855089363 -2.554866617876969 Q 6.067217947161341 -2.5181882841901624 6.1078884137557745 -2.471508944745488 Q 6.148558880350207 -2.4248296053008143 6.175892859136887 -2.371816875851281 M 5.847898428509438 -1.3675405147797284 Q 5.822341821291938 -1.398508933072086 5.821616891339484 -1.4388141412413045 Q 5.820891961387028 -1.4791193494105228 5.8496483498013605 -1.5028504846839157 L 6.488924984550741 -2.03041187653088 Q 6.5176813729650735 -2.054143011804273 6.5530095139087345 -2.050760629882487 Q 6.5883376548523955 -2.047378247960701 6.612068790125789 -2.0186218595463687 L 6.874936750077217 -1.700089557110691 Q 6.9223990206240025 -1.642576780282027 6.933513096529589 -1.5671528613254728 Q 6.944627172435175 -1.4917289423689184 6.916542055110556 -1.4164928294319625 Q 6.888456937785937 -1.3412567164950069 6.818777996628132 -1.283754350255632 Q 6.776749428945647 -1.2490703833175962 6.722785483574357 -1.2333551198783654 Q 6.6688215382030664 -1.2176398564391349 6.6125596017122765 -1.2204799091334197 Q 6.556297665221487 -1.2233199618277046 6.508481139119515 -1.245214679262269 L 6.534832218688862 -1.2651015916804882 Q 6.5437986018211705 -1.2204421338073272 6.5380109110544 -1.1812697700084926 Q 6.532223220287629 -1.142097406209658 6.515815596927391 -1.1090349540067652 Q 6.499407973567154 -1.0759725018038722 6.471371042157916 -1.0491166006804002 Q 6.4473716125708105 -1.0218741416230097 6.427726432687649 -1.0028731357454728 Q 6.408081252804487 -0.9838721298679357 6.397810370471562 -0.9670294950056818 Q 6.3875394881386365 -0.950186860143428 6.391662951202243 -0.929419514131887 Q 6.397364948380256 -0.8932216178369096 6.375287630220738 -0.8647765043570268 Q 6.353210312061219 -0.8363313908771441 6.316679516695066 -0.8377916613713434 Q 6.292261226795311 -0.8380922580637874 6.272873662983856 -0.853699936124817 Q 6.253486099172401 -0.8693076141858466 6.2418406399340345 -0.8913044440512512 Q 6.230195180695668 -0.9133012739166558 6.226791174637156 -0.9309438540781176 Q 6.222334812502373 -0.9588734677618704 6.228385592288211 -0.9954740731801323 Q 6.234436372074049 -1.032074678598394 6.261351137354908 -1.0738081225357958 Q 6.288265902635767 -1.115541566473198 6.345778679464431 -1.1630038370199836 Q 6.364580933427648 -1.1785203485448943 6.375141734211012 -1.1983911097737479 Q 6.385702534994375 -1.2182618710026012 6.3872755961614205 -1.240011763038304 Q 6.388848657328465 -1.261761655074007 6.379415227968124 -1.2855839568835188 Q 6.3699817986077845 -1.3094062586930306 6.348988871250552 -1.3348446022903242 L 6.164616204895731 -1.5582596199709038 L 6.2037455880738275 -1.5626623232429444 L 5.9637403463080565 -1.3645986173073195 Q 5.934983957893725 -1.3408674820339266 5.902850392852251 -1.340378811669168 Q 5.870716827810778 -1.339890141304409 5.847898428509438 -1.3675405147797284 M 6.279448479586099 -1.651165410153409 L 6.492115961074582 -1.3934639293634334 Q 6.508545208571546 -1.3735556604612036 6.5423109665901675 -1.3698135500368704 Q 6.576076724608789 -1.3660714396125373 6.617638246063242 -1.3799182504869236 Q 6.659199767517696 -1.39376506136131 6.69680427544413 -1.4247980844111314 Q 6.745468932760692 -1.4649584671814884 6.756647078118309 -1.5178755294238688 Q 6.767825223475927 -1.5707925916662493 6.743181352230481 -1.6006549950195943 L 6.532339342686106 -1.8561444459315442 L 6.578684652399157 -1.8720798177691051 L 6.265682424658543 -1.6137755376779443 L 6.279448479586099 -1.651165410153409 M 7.21862942808913 -0.012717497725419857 Q 7.119720308287338 0.02951979054021847 7.019919975037238 0.03315573376984082 Q 6.920119641787138 0.036791676999463174 6.829215667836801 0.004663421241696941 Q 6.738311693886464 -0.027464834516069292 6.666187882272429 -0.09412051339839156 Q 6.594064070658395 -0.16077619228071371 6.552389946236298 -0.25836652381848246 Q 6.510715821814202 -0.3559568553562512 6.512725734907277 -0.4534903153449048 Q 6.514735648000352 -0.5510237753335584 6.554391712188381 -0.6389052516019672 Q 6.59404777637641 -0.7267867278703761 6.665689917449417 -0.7963620843011935 Q 6.7373320585224254 -0.865937440732011 6.836241178324218 -0.9081747289976493 Q 6.93515029812601 -0.9504120172632877 7.03495063137611 -0.95404796049291 Q 7.1347509646262095 -0.9576839037225324 7.225654938576547 -0.9255556479647662 Q 7.316558912526884 -0.893427392207 7.388401142219148 -0.8274311074566897 Q 7.460243371911411 -0.7614348227063794 7.501917496333508 -0.6638444911686107 Q 7.543591620755604 -0.5662541596308419 7.541863289584301 -0.46806130551017644 Q 7.540134958412996 -0.36986845138951085 7.500478894224967 -0.28198697512110205 Q 7.460822830036938 -0.19410549885269313 7.389180688963931 -0.12453014242187566 Q 7.317538547890923 -0.0549547859910583 7.21862942808913 -0.012717497725419857 M 7.14541812842869 -0.1841599720485272 Q 7.233776942118292 -0.2218919495658307 7.290445478731964 -0.28819166216750663 Q 7.347114015345637 -0.3544913747691825 7.362846539147936 -0.4344956661716449 Q 7.378579062950234 -0.5144999575741074 7.343662904650639 -0.5962648299435893 Q 7.308746746351045 -0.6780297023130712 7.240076821255814 -0.7219915077288556 Q 7.171406896160582 -0.7659533131446399 7.085268488049432 -0.7704903545900137 Q 6.999130079938283 -0.7750273960353875 6.909452477984657 -0.7367322546745421 Q 6.821093664295056 -0.6990002771572384 6.764143545759612 -0.6333599586875746 Q 6.707193427224168 -0.5677196402179105 6.69146090342187 -0.4877153488154482 Q 6.6757283796195726 -0.4077110574129858 6.710644537919166 -0.32594618504350387 Q 6.745560696218761 -0.24418131267402188 6.8142306213139925 -0.20021950725823756 Q 6.882900546409224 -0.15625770184245324 6.969979930574157 -0.1513428481868384 Q 7.057059314739089 -0.14642799453122357 7.14541812842869 -0.1841599720485272 M 7.026367812672691 0.8965635208584466 Q 7.031561497213911 0.9334840069994268 7.011626937911801 0.9616303263223984 Q 6.991692378609692 0.98977664564537 6.954771892468712 0.994970330186589 Q 6.919271425025462 0.9999642576300687 6.892345367302481 0.9784099225324902 Q 6.8654193095795 0.9568555874349117 6.860225625038281 0.9199351012939316 L 6.795304568273045 0.45842902453168033 Q 6.790110883731827 0.42150853839070024 6.8114654617316654 0.3931624619699894 Q 6.832820039731505 0.36481638554927853 6.869740525872485 0.35962270100805965 L 7.690511333160427 0.24416309851480905 Q 7.727431819301407 0.23896941397359017 7.755877774270988 0.2610340013222945 Q 7.784323729240568 0.2830985886709987 7.7899169279772655 0.3228591122074388 Q 7.794711098323006 0.3569395609529589 7.773556277420906 0.3867056560713998 Q 7.752401456518806 0.41647175118984064 7.7154809703778255 0.4216654357310595 L 6.950090892301354 0.5293345114124819 L 6.969836554012502 0.4946982294008555 L 7.026367812672691 0.8965635208584466 M 6.991711866531242 1.7583871395572943 Q 6.98852789226012 1.795534938467066 6.962810267961817 1.818517665599662 Q 6.937092643663515 1.8415003927322582 6.899944844753744 1.8383164184611367 Q 6.864225807340501 1.8352549047389046 6.842794302253324 1.8082309794929619 Q 6.821362797166147 1.781207054247019 6.8245467714372685 1.7440592553372474 L 6.8643464498262885 1.279711768965101 Q 6.86753042409741 1.2425639700553293 6.894676809892242 1.2197037034716225 Q 6.9218231956870735 1.1968434368879157 6.958970994596846 1.2000274111590372 L 7.784795139591001 1.2708096084170468 Q 7.821942938500773 1.2739935826881683 7.844741974810035 1.301854349231265 Q 7.867541011119298 1.329715115774362 7.864112115750397 1.3697204376771932 Q 7.861173062577054 1.4040107135939053 7.833904216233333 1.428299741674142 Q 7.806635369889611 1.4525887697543785 7.76948757097984 1.449404795483257 L 6.999385124350342 1.3833985596319296 L 7.0263682018669105 1.3540476360393945 L 6.991711866531242 1.7583871395572943" fill="#fcf7ee" fill-rule="nonzero"></path></g><g clip-path="url(#SvgjsClipPath1118)"><g clip-path="url(#SvgjsClipPath111785f0be4e-f3b3-4b8f-82c5-198a2b5b567b)"><path d=" M 5.589092737394616 0 L 5.382800506511094 0.013164946702982211 L 5.174521113861083 0.01738766545676896 L 4.968228882977559 0.04048842099219058 L 4.76541418518539 0.09004326754398212 L 4.560115535185111 0.1186087179372454 L 4.350842561651856 0.11326822068980923 L 4.148027863859687 0.1682877620994424 L 3.9395000759888643 0.16866035493065887 L 3.7348224140406123 0.21212951857258125 L 3.5255494405073575 0.18878036781634866 L 3.319505604844646 0.19747420054473316 L 3.1181812783773424 0.20231790735054736 L 2.9167327542996335 0.20418087150662972 L 2.7147874397803027 0.20716161415636156 L 2.5128421252609714 0.20008235036324848 L 2.311021008352046 0.1917611104660805 L 2.111062855599203 0.15884874370862498 L 1.9091175410798722 0.15425343212362175 L 1.7102771668206787 0.11960229882048933 L 1.5078350618597254 0.11786353227481243 L 1.3086220947693155 0.08445437507573494 L 1.1096575228997168 0.050796822655846445 L 0.9072154179387634 0.05352917008476729 L 0.7075056604067317 0.02757186951001934 L 0.5065539267706448 0.032415576315833555 L 0.44594549289276453 0.08097684198438114 L 0.5043183697833455 0.1163731609499465 L 0.706636277133893 0.174994433061339 L 0.8679689730506278 0.3051535287662952 L 1.0449505678784543 0.4169313781312385 L 1.1772210229603037 0.5762769122814854 L 1.2605576195423887 0.7337594822756499 L 1.3353245810064946 0.8959615614652233 L 1.3294872933174373 1.0735641443450776 L 1.3130932087439124 1.2956294717500985 L 1.256210703178197 1.509870349699573 L 1.1613237288284004 1.707344550244306 L 0.9936569547809853 1.8471910595608907 L 0.7778015078962391 1.888052073384298 L 0.5829354571700214 1.8589898325494125 L 0.4112943595896311 1.760252732277046 L 0.2633750055966884 1.625374127376681 L 0.17420112132554497 1.4348549930146555 L 0.13234652661889312 1.2325370856641082 L 0.1457598685426865 1.0248786810661243 L 0.261512041440605 0.8229333665467935 L 0.4309175820336972 0.6617248682404642 L 0.65372809510115 0.6038487817915047 L 0.8478489601649355 0.6945130373875142 L 0.9631043426212322 0.8749721653066949 L 0.9919181882353061 1.0907034145810357 L 0.9753999060513752 1.3441907374186461 L 0.837167965670062 1.5340888837286442 L 0.6014409011204369 1.4714932880842757 L 0.4481810498800587 1.2803531656702227 L 0.5841774332740731 1.0753029108907548 L 0.7050217081986173 1.096540702270094 L 0.6789402100134639 1.2058345994269273 L 0.7077540556275378 1.279856375228601 L 0.7640155731412265 1.2557620388099353 L 0.7887308976119193 1.033324118573698 L 0.554618401997566 0.9845144576843397 L 0.3727931003639296 1.0977826783741487 L 0.33950814077525726 1.311650963492407 L 0.4602282180893967 1.4903713248659107 L 0.6445374719311474 1.6035153479453144 L 0.8567911881141349 1.6519524160034564 L 1.0358841423188547 1.5574380344848768 L 1.0859357793122686 1.3645591455251471 L 1.1233192600443218 1.169444699578118 L 1.0989765284048454 0.9707285229293302 L 1.0505394603467033 0.7428259078352514 L 0.8908213333652395 0.5690734508779672 L 0.6683834131290032 0.4856126566854762 L 0.4664380986096727 0.5457243001217346 L 0.29144366554833384 0.6551423948889735 L 0.14054356890565958 0.8008261918946163 L 0.03534819289220756 0.9851354457363672 L -0.00004812607335761596 1.169444699578118 L 0.03497560006099111 1.3518909892637867 L 0.08800797970413651 1.5273822127667478 L 0.19196137961353332 1.6784065070198266 L 0.3268399845138979 1.8615979823679278 L 0.5277917181499854 1.9723822508496274 L 0.7530861834255492 2.002810665398973 L 0.7845081788581387 2.015727216881144 L 0.993781152391394 1.9726306460704384 L 1.1716321304920598 1.8568784731725194 L 1.3097398732629677 1.6962909629182177 L 1.3828922657918026 1.4974505886590241 L 1.4063656141584409 1.2880534175153635 L 1.4413893402927889 1.080891803359002 L 1.4334406932268375 0.8760899438003448 L 1.3730806545697685 0.6779947552035842 L 1.2368358759549427 0.5231203350279351 L 1.1435634705404183 0.36861850768350235 L 0.9994942424700473 0.2600697961891018 L 0.8772837938310426 0.1507758990322684 L 1.0856873840914585 0.12817193393846876 L 1.2963265313391736 0.17015072625552527 L 1.5075866666389166 0.19188530807648646 L 1.72021297565312 0.19896457186959954 L 1.9314731109528627 0.2210717465217772 L 2.1439752223566604 0.23187693862705505 L 2.353620788721132 0.27186856917762364 L 2.564880924020875 0.291119198790475 L 2.7776314306454832 0.30093081001250893 L 2.993114284699013 0.30378735505183524 L 3.140288453029522 0.4407773193290936 L 3.2600149494604165 0.5983840869336636 L 3.344469324536151 0.77648346025514 L 3.405201956024437 0.966381606565138 L 3.394024171087943 1.1658429688763592 L 3.315655478922077 1.3476682705100003 L 3.2509485239008153 1.5335920932870228 L 3.1353205486133016 1.696290962918218 L 2.9388399289518126 1.7017556577760597 L 2.744967459108838 1.7147964068686363 L 2.5515917797074867 1.735413210195948 L 2.3616936333974885 1.7868310209038223 L 2.1673243731128924 1.8007411532692372 L 1.9723341247762693 1.807447824231134 L 1.7785858525437008 1.8242145016358755 L 1.5874457301296476 1.8663174915633374 L 1.394442643559512 1.8887972590467315 L 1.3320954431359542 1.9373585247152791 L 1.4000315360277582 2.0003267131908635 L 1.5952701795851931 1.9626948372379995 L 1.7946073442860089 1.9634400229004325 L 1.9898459878434431 1.9331358059614923 L 2.182724876803173 1.8840777498513228 L 2.3818136462831774 1.8824631809160515 L 2.577300685061423 1.848308838054541 L 2.776265256931022 1.83924241249494 L 2.970882912436429 1.7977604106195055 L 3.170095879526839 1.7860858352413893 L 3.354653528589401 1.8751355219021275 L 3.535236854118988 1.9720096580184114 L 3.7251350004289856 2.0483911884177894 L 3.9023649904776234 2.1527171811584034 L 4.091766346345999 2.232327849428324 L 4.271231893381937 2.3037414754114818 L 4.379780604876337 2.1014235680609343 L 4.610788160230554 2.1280018566877095 L 4.850241153092343 2.123158149881895 L 5.098263781072111 2.149860636119076 L 4.883774507901825 2.055843045042118 L 4.670403013225189 1.9932474493977494 L 4.463241399068828 1.913139990686207 L 4.255210401639628 1.834274508078719 L 4.045564835275156 1.7650964390828598 L 4.235959772026776 1.7726724933175948 L 4.429708044259344 1.8145270880242457 L 4.626188663920834 1.8151480760762733 L 4.822048295530295 1.8232209207526302 L 5.016293358204487 1.8464458738984573 L 5.209296444774622 1.8866858996698368 L 5.403417309838407 1.9147545596214783 L 5.59977373188949 1.8998508463728194 L 5.793894596953275 1.8902876303715963 L 5.987270276354628 1.8772468812790195 L 6.172945703910838 1.781242128435574 L 6.287083307873486 1.5999136172435549 L 6.354398412713263 1.3966021290097634 L 6.398364366796808 1.186211376982859 L 6.398612762017618 0.9707285229293297 L 6.361353478895971 0.7762350650343283 L 6.293789978835383 0.5906838350885224 L 6.214427705786273 0.41096989283177465 L 6.112337270032958 0.24119175940746634 L 5.960816185338257 0.11351661591062 L 5.789796075809894 0.008445437507573294 Z M 4.332461315311843 1.6944279987621351 L 4.127783653363592 1.6635027937711673 L 3.9362709381183216 1.663130200939951 L 4.0290465530912245 1.5099945473099785 L 4.112010556842093 1.337359868846344 L 4.19062764422877 1.1575217289791904 L 4.163676762770779 0.9629040734737836 L 4.144922923599549 0.7703977773452702 L 4.044943847223127 0.6040971770123157 L 3.970052688148616 0.42189928254745807 L 3.840266185274876 0.29881945063561494 L 4.024948031947844 0.281431785178846 L 4.2201866755052775 0.255474484604098 L 4.414804331010684 0.22330730350907546 L 4.609918776957714 0.19685321249270551 L 4.804909025294337 0.16803936687863125 L 5.00238322583907 0.16145689352714016 L 5.196504090902854 0.12519119128873635 L 5.394102489057993 0.11997489165170563 L 5.589092737394616 0.08929808188154914 L 5.792280028018003 0.1347544072899594 L 5.9615613710006885 0.24752583753814666 L 6.109853317824847 0.3894837062316247 L 6.189588183705173 0.5801270382040558 L 6.258269462259411 0.77536568176149 L 6.279134660807533 0.9804159365409583 L 6.299751464134845 1.2103057134015252 L 6.245104515556429 1.435227585845872 L 6.129600737879321 1.6325775887801999 L 5.970503598949885 1.7741628646424614 L 5.767192110716093 1.8013621413212642 L 5.561520867884597 1.8136577047514082 L 5.355849625053102 1.7986297938923432 L 5.152165543988095 1.7667110080181319 L 4.947363684429437 1.7523040852110947 L 4.7449215794684845 1.7103252928940385 L 4.537884162922528 1.7106978857252548 Z" fill="#5e5b5c" transform="matrix(1,0,0,1,0,0)" fill-rule="nonzero"></path></g><g clip-path="url(#a77ea4b8a-64fd-4019-b19b-d303b8b6f36585f0be4e-f3b3-4b8f-82c5-198a2b5b567b)"><path d=" M 5.0858921461049205 2.067740837617531 L 4.856374962075571 2.003158080206675 L 4.633440251397712 1.920442471676617 L 4.409760355057419 1.8390930368610194 L 4.244204940386897 1.7843218906721972 L 4.190924165522941 1.7679278060986723 C 4.170431559806035 1.7607243446951535 4.152174511076428 1.7218504926382345 4.131681905359521 1.7143986360139047 C 4.107090778499233 1.705580605675115 4.090696693925708 1.715392216897149 4.089951508263276 1.6939060302969986 C 4.082127058807729 1.6847154071269923 4.0565423510641985 1.68670256889348 4.057908524778658 1.6756489815673914 L 4.015308744409575 1.6522998308111587 L 4.050456668154329 1.529592591730532 L 4.139754750035879 1.3514932184090556 L 4.224333322722019 1.1658177908528442 L 4.1952710818871335 0.9652386500479737 L 4.175151069001443 0.7663982757887802 L 4.067595938390287 0.5948813758187949 L 3.987115886847528 0.40697039127528467 L 3.8473935751413486 0.27991623583046554 L 3.8593165457402763 0.2787984573368162 L 3.828018747918092 0.2563186898534221 C 3.797838728589557 0.2347083056428665 3.7713846375731874 0.2116075501074448 3.7453031393880343 0.18825839935121222 L 3.734001156841134 0.1906181539489165 L 3.508830889175976 0.16639961991984545 L 3.2871381546021716 0.17534184786904086 L 3.0705375220549924 0.18030975228526058 L 2.9263440963742156 0.18167592599972082 C 2.9550337443778845 0.2370680602405705 2.982729811498309 0.29295698492304223 3.008562914462651 0.34983949048875773 L 3.094259265642442 0.426345218498541 L 3.223052187632937 0.5889198905193308 L 3.314089036060163 0.7728565515298651 L 3.3792927815230467 0.9685919855289215 L 3.367245613313714 1.174511623581228 L 3.28303963345879 1.3621742129039272 L 3.2133647740213083 1.5539353233700077 L 3.10643063146218 1.6982529466611902 C 3.102587448648033 1.733859037611747 3.0959851288056845 1.769112934128439 3.0866832114077067 1.803696717895452 L 3.1089145836702894 1.8135083291174872 C 3.1099081645535334 1.8140051195591091 3.1101565597743446 1.8148745028319477 3.111025943047183 1.8153712932735697 L 3.1263022491270585 1.8145019100007314 L 3.3248942281654412 1.9062839440903903 L 3.519263488450037 2.0062630204668115 L 3.723444359956667 2.0851285030742996 L 3.9142118895395033 2.1928078312958617 L 4.11789597060451 2.2747782541634867 L 4.311023254785052 2.348551634744349 L 4.427769008566215 2.1397754516527163 L 4.676288426987606 2.16722312355233 L 4.933998468579002 2.162131021525705 L 5.3167755038487305 2.1646149737338147 Z" fill="#ffe398" transform="matrix(1,0,0,1,0,0)" fill-rule="nonzero"></path></g></g></g><defs><clipPath id="SvgjsClipPath1118"><path d=" M 0 0 h 6.3985526868622875 v 2.3485516347443496 h -6.3985526868622875 Z"></path></clipPath><clipPath id="SvgjsClipPath111785f0be4e-f3b3-4b8f-82c5-198a2b5b567b"><path d=" M 0 0 L 6.3985526868622875 0 L 6.3985526868622875 2.3485516347443496 L 0 2.3485516347443496 Z"></path></clipPath><clipPath id="a77ea4b8a-64fd-4019-b19b-d303b8b6f36585f0be4e-f3b3-4b8f-82c5-198a2b5b567b"><path d=" M 0 2.34855163474435 L 6.398536690480571 2.34855163474435 L 6.398536690480571 0.00009901958689137264 L 0 0.00009901958689137264 Z"></path></clipPath></defs></svg>